<mxfile host="app.diagrams.net" agent="Mozilla/5.0 (Windows NT 10.0; Win64; x64) AppleWebKit/537.36 (KHTML, like Gecko) Chrome/130.0.0.0 YaBrowser/24.12.0.0 Safari/537.36" version="25.0.3">
  <diagram name="Страница — 1" id="M5Uz-Huadg0Rzwa8x6v-">
    <mxGraphModel dx="1066" dy="1016" grid="1" gridSize="10" guides="1" tooltips="1" connect="1" arrows="1" fold="1" page="1" pageScale="1" pageWidth="827" pageHeight="1169" math="0" shadow="0">
      <root>
        <mxCell id="0" />
        <mxCell id="1" parent="0" />
        <mxCell id="Etf8rqEQ94jlUfeYR5kx-1" value="&lt;font style=&quot;font-size: 25px;&quot;&gt;Пользователь&lt;/font&gt;" style="shape=umlActor;verticalLabelPosition=bottom;verticalAlign=top;html=1;outlineConnect=0;" vertex="1" parent="1">
          <mxGeometry x="410" y="310" width="110" height="220" as="geometry" />
        </mxCell>
        <mxCell id="Etf8rqEQ94jlUfeYR5kx-4" value="&lt;font style=&quot;font-size: 25px;&quot;&gt;Регистрация&lt;/font&gt;" style="ellipse;whiteSpace=wrap;html=1;" vertex="1" parent="1">
          <mxGeometry x="230" y="100" width="210" height="140" as="geometry" />
        </mxCell>
        <mxCell id="Etf8rqEQ94jlUfeYR5kx-5" value="&lt;font style=&quot;font-size: 25px;&quot;&gt;Авторизация&lt;/font&gt;" style="ellipse;whiteSpace=wrap;html=1;" vertex="1" parent="1">
          <mxGeometry x="510" y="100" width="210" height="140" as="geometry" />
        </mxCell>
        <mxCell id="Etf8rqEQ94jlUfeYR5kx-6" value="&lt;font style=&quot;font-size: 25px;&quot;&gt;Поиск автозапчастей&lt;/font&gt;" style="ellipse;whiteSpace=wrap;html=1;" vertex="1" parent="1">
          <mxGeometry x="100" y="300" width="210" height="140" as="geometry" />
        </mxCell>
        <mxCell id="Etf8rqEQ94jlUfeYR5kx-7" value="&lt;font style=&quot;font-size: 25px;&quot;&gt;Фильтрация предложений&lt;/font&gt;" style="ellipse;whiteSpace=wrap;html=1;" vertex="1" parent="1">
          <mxGeometry x="110" y="500" width="210" height="140" as="geometry" />
        </mxCell>
        <mxCell id="Etf8rqEQ94jlUfeYR5kx-9" value="&lt;font style=&quot;font-size: 25px;&quot;&gt;Сравнение предложений&lt;/font&gt;" style="ellipse;whiteSpace=wrap;html=1;" vertex="1" parent="1">
          <mxGeometry x="360" y="650" width="210" height="140" as="geometry" />
        </mxCell>
        <mxCell id="Etf8rqEQ94jlUfeYR5kx-10" value="&lt;font style=&quot;font-size: 25px;&quot;&gt;Просмотр деталей объявления&lt;/font&gt;" style="ellipse;whiteSpace=wrap;html=1;" vertex="1" parent="1">
          <mxGeometry x="610" y="480" width="210" height="140" as="geometry" />
        </mxCell>
        <mxCell id="Etf8rqEQ94jlUfeYR5kx-11" value="&lt;font style=&quot;font-size: 25px;&quot;&gt;Связь с продавцом&lt;/font&gt;" style="ellipse;whiteSpace=wrap;html=1;" vertex="1" parent="1">
          <mxGeometry x="610" y="290" width="210" height="140" as="geometry" />
        </mxCell>
        <mxCell id="Etf8rqEQ94jlUfeYR5kx-13" value="" style="endArrow=classic;html=1;rounded=0;entryX=0.733;entryY=0.967;entryDx=0;entryDy=0;entryPerimeter=0;" edge="1" parent="1" target="Etf8rqEQ94jlUfeYR5kx-4">
          <mxGeometry width="50" height="50" relative="1" as="geometry">
            <mxPoint x="430" y="320" as="sourcePoint" />
            <mxPoint x="470" y="460" as="targetPoint" />
          </mxGeometry>
        </mxCell>
        <mxCell id="Etf8rqEQ94jlUfeYR5kx-14" value="" style="endArrow=classic;html=1;rounded=0;entryX=0;entryY=1;entryDx=0;entryDy=0;" edge="1" parent="1" target="Etf8rqEQ94jlUfeYR5kx-5">
          <mxGeometry width="50" height="50" relative="1" as="geometry">
            <mxPoint x="510" y="300" as="sourcePoint" />
            <mxPoint x="394" y="245" as="targetPoint" />
          </mxGeometry>
        </mxCell>
        <mxCell id="Etf8rqEQ94jlUfeYR5kx-16" value="" style="endArrow=classic;html=1;rounded=0;" edge="1" parent="1" target="Etf8rqEQ94jlUfeYR5kx-6">
          <mxGeometry width="50" height="50" relative="1" as="geometry">
            <mxPoint x="430" y="420" as="sourcePoint" />
            <mxPoint x="470" y="460" as="targetPoint" />
          </mxGeometry>
        </mxCell>
        <mxCell id="Etf8rqEQ94jlUfeYR5kx-17" value="" style="endArrow=classic;html=1;rounded=0;entryX=0;entryY=0.5;entryDx=0;entryDy=0;" edge="1" parent="1" target="Etf8rqEQ94jlUfeYR5kx-11">
          <mxGeometry width="50" height="50" relative="1" as="geometry">
            <mxPoint x="500" y="410" as="sourcePoint" />
            <mxPoint x="470" y="460" as="targetPoint" />
          </mxGeometry>
        </mxCell>
        <mxCell id="Etf8rqEQ94jlUfeYR5kx-18" value="" style="endArrow=classic;html=1;rounded=0;entryX=0;entryY=0;entryDx=0;entryDy=0;" edge="1" parent="1" target="Etf8rqEQ94jlUfeYR5kx-10">
          <mxGeometry width="50" height="50" relative="1" as="geometry">
            <mxPoint x="510" y="440" as="sourcePoint" />
            <mxPoint x="470" y="460" as="targetPoint" />
          </mxGeometry>
        </mxCell>
        <mxCell id="Etf8rqEQ94jlUfeYR5kx-19" value="" style="endArrow=classic;html=1;rounded=0;" edge="1" parent="1" target="Etf8rqEQ94jlUfeYR5kx-7">
          <mxGeometry width="50" height="50" relative="1" as="geometry">
            <mxPoint x="430" y="440" as="sourcePoint" />
            <mxPoint x="470" y="460" as="targetPoint" />
          </mxGeometry>
        </mxCell>
        <mxCell id="Etf8rqEQ94jlUfeYR5kx-20" value="" style="endArrow=classic;html=1;rounded=0;entryX=0.5;entryY=0;entryDx=0;entryDy=0;" edge="1" parent="1" target="Etf8rqEQ94jlUfeYR5kx-9">
          <mxGeometry width="50" height="50" relative="1" as="geometry">
            <mxPoint x="465" y="570" as="sourcePoint" />
            <mxPoint x="470" y="460" as="targetPoint" />
          </mxGeometry>
        </mxCell>
      </root>
    </mxGraphModel>
  </diagram>
</mxfile>
